<svg width="165" height="78" viewBox="0 0 165 78" version="1.1" xmlns="http://www.w3.org/2000/svg" xmlns:xlink="http://www.w3.org/1999/xlink" xmlns:figma="http://www.figma.com/figma/ns">
<title>sig</title>
<desc>Created using Figma</desc>
<g id="Canvas" transform="translate(3313 215)" figma:type="canvas">
<g id="sig" style="mix-blend-mode:normal;" figma:type="frame">
<g id="Shape" style="mix-blend-mode:normal;" figma:type="vector">
<use xlink:href="#path0_fill" transform="translate(-3312.03 -189.118)" style="mix-blend-mode:normal;"/>
</g>
<g id="Shape" style="mix-blend-mode:normal;" figma:type="vector">
<use xlink:href="#path1_fill" transform="translate(-3198.86 -179.382)" fill="#FFFFFF" style="mix-blend-mode:normal;"/>
</g>
<g id="Shape" style="mix-blend-mode:normal;" figma:type="vector">
<use xlink:href="#path2_fill" transform="translate(-3216.11 -178.81)" fill="#FFFFFF" style="mix-blend-mode:normal;"/>
</g>
<g id="Shape" style="mix-blend-mode:normal;" figma:type="vector">
<use xlink:href="#path3_fill" transform="translate(-3223.62 -179.197)" fill="#FFFFFF" style="mix-blend-mode:normal;"/>
</g>
<g id="Shape" style="mix-blend-mode:normal;" figma:type="vector">
<use xlink:href="#path4_fill" transform="translate(-3229.62 -179.141)" fill="#FFFFFF" style="mix-blend-mode:normal;"/>
</g>
<g id="Shape" style="mix-blend-mode:normal;" figma:type="vector">
<use xlink:href="#path5_fill" transform="translate(-3252.19 -187.742)" fill="#FFFFFF" style="mix-blend-mode:normal;"/>
</g>
<g id="Shape" style="mix-blend-mode:normal;" figma:type="vector">
<use xlink:href="#path6_fill" transform="translate(-3310.62 -178.237)" fill="#FFFFFF" style="mix-blend-mode:normal;"/>
</g>
<g id="Shape" style="mix-blend-mode:normal;" figma:type="vector">
<use xlink:href="#path7_fill" transform="translate(-3311.86 -214.507)" style="mix-blend-mode:normal;"/>
</g>
<g id="Shape" style="mix-blend-mode:normal;" figma:type="vector">
<use xlink:href="#path8_fill" transform="translate(-3241.35 -191.957)" fill="#FFFFFF" style="mix-blend-mode:normal;"/>
</g>
<g id="Shape" style="mix-blend-mode:normal;" figma:type="vector">
<use xlink:href="#path9_fill" transform="translate(-3243.12 -194.582)" fill="#FFFFFF" style="mix-blend-mode:normal;"/>
</g>
<g id="Shape" style="mix-blend-mode:normal;" figma:type="vector">
<use xlink:href="#path10_fill" transform="translate(-3267.14 -192.451)" fill="#FFFFFF" style="mix-blend-mode:normal;"/>
</g>
<g id="Shape" style="mix-blend-mode:normal;" figma:type="vector">
<use xlink:href="#path11_fill" transform="translate(-3306.31 -195.271)" fill="#FFFFFF" style="mix-blend-mode:normal;"/>
</g>
</g>
</g>
<defs>
<path id="path0_fill" fill-rule="evenodd" d="M 163.592 8.77823C 163.353 8.81018 163.129 8.83086 162.903 8.85247C 162.87 8.89476 162.841 8.92577 162.821 8.95773C 162.673 8.79985 162.112 8.91544 161.96 8.91544C 161.616 8.89476 161.272 8.87409 160.927 8.85247C 160.89 8.9051 160.854 8.95773 160.828 9.01035C 161.062 9.0517 161.295 9.09399 161.541 9.12594C 161.555 9.08365 161.568 9.04136 161.586 8.98874C 161.699 8.98874 161.814 8.98874 161.937 8.98874C 161.97 9.06204 161.97 9.06204 162.15 9.12594C 162.308 9.13628 162.466 9.14662 162.628 9.14662C 162.5 9.53568 158.905 9.11467 145.109 7.89486C 137.223 7.34792 129.441 6.88556 121.534 6.6337C 116.118 6.6337 116.117 6.6337 108.339 6.77091C 108.24 6.8132 108.141 6.85455 108.046 6.8865C 109.491 7.05471 110.439 7.26522 111.654 7.44377C 111.636 7.4964 111.622 7.53869 111.608 7.58098C 112.381 7.60165 112.381 7.60165 113.337 7.75953C 114.33 7.33946 115.775 6.78124 115.388 8.2858C 116.173 8.41173 117.043 8.65418 117.905 8.77917C 117.88 8.85341 117.856 8.92671 117.836 8.98968C 117.893 8.98968 117.893 8.98968 117.937 8.85247C 118.25 8.88443 118.515 9.03103 119.239 9.16729C 121.361 9.76686 123.513 10.3345 125.515 11.2385C 125.495 11.3015 125.478 11.3541 125.46 11.4067C 125.583 11.4067 125.583 11.4067 125.7 11.3118C 125.692 11.3644 125.684 11.4171 125.68 11.4594C 127.174 11.8278 128.447 13.0466 128.958 14.5606C 128.942 15.2757 128.853 16.7361 127.997 17.0312C 127.979 17.0838 127.966 17.1261 127.952 17.1684C 127.338 17.4212 126.722 17.6731 126.12 17.9146C 123.299 18.7237 120.705 18.8393 118.148 18.9032C 115.622 18.6091 113.899 18.5038 112.474 16.6741C 111.373 14.5305 111.833 12.3437 113.488 9.41069C 113.279 9.37968 113.071 9.34773 112.863 9.31577C 112.042 9.82043 111.23 10.3251 110.423 10.8194C 110.405 10.872 110.388 10.9246 110.374 10.9669C 109.7 11.2817 109.031 12.0815 108.464 12.3014C 108.203 12.7224 107.977 12.6585 107.786 13.0062C 107.58 13.1115 107.375 13.2167 107.183 13.3116C 107.182 13.3426 107.181 13.3746 107.18 13.4065C 107.037 13.4686 106.905 13.5221 106.773 13.5748C 106.755 13.6274 106.742 13.6697 106.728 13.712C 106.499 13.7749 105.583 14.3115 105.547 14.4168C 105.267 14.4591 104.987 14.5004 104.712 14.5324C 104.058 13.8905 104.589 13.0494 105.184 12.0195C 105.222 12.0195 105.259 12.0195 105.308 12.0195C 105.309 11.9565 105.31 11.8935 105.323 11.8306C 104.847 12.1773 104.847 12.1773 104.196 12.5138C 104.178 12.5664 104.161 12.619 104.147 12.6604C 104.081 12.6604 104.014 12.6604 103.957 12.6604C 103.935 12.7027 103.91 12.744 103.897 12.7863C 103.838 12.7966 103.78 12.7966 103.722 12.7966C 103.704 12.8493 103.688 12.9019 103.674 12.9442C 102.769 13.3859 101.923 13.9948 101.137 14.2476C 100.899 14.2476 100.662 14.2476 100.428 14.2373C 100.21 13.8586 100.077 13.2487 100.712 12.7337C 100.649 12.7233 100.595 12.713 100.541 12.7017C 99.0106 13.3116 97.5983 13.9422 96.1749 14.4581C 94.7169 14.7307 93.423 14.678 94.6927 12.6594C 94.8092 12.5645 94.8959 12.5335 94.9844 12.26C 93.3512 13.0692 91.6975 13.6791 90.1668 14.3209C 88.4171 14.8782 86.3187 15.6554 87.139 13.1538C 87.3991 12.7337 87.5958 12.5128 87.6144 12.3972C 85.7277 13.3426 83.001 15.0248 81.2717 15.0248C 80.9399 14.8782 80.7516 14.6677 80.6294 14.6357C 80.6537 14.5624 80.6779 14.4891 80.7022 14.4158C 80.6546 14.4158 80.6108 14.4046 80.5763 14.3952C 81.0182 12.7863 83.1212 11.4406 84.5186 10.3683C 84.005 10.3683 82.6178 10.5158 81.7211 10.6728C 81.1235 11.2197 80.4971 11.7977 80.0655 12.3023C 80.0179 12.3023 79.9704 12.3023 79.9322 12.3023C 79.9144 12.355 79.8977 12.4076 79.8837 12.4499C 79.8361 12.4499 79.7979 12.4499 79.7606 12.4499C 79.6199 12.6181 79.4791 12.7863 79.3421 12.9442C 78.6122 13.228 77.8459 14.3219 77.1551 14.6884C 76.7412 15.1084 75.0763 16.7709 74.544 16.8865C 74.2634 17.3376 72.5351 18.61 72.2219 18.7256C 72.2042 18.7782 72.1911 18.8205 72.1772 18.8628C 72.1352 18.8731 72.0942 18.8835 72.056 18.8835C 71.8695 19.2199 71.492 19.3881 71.2766 19.4924C 71.2589 19.546 71.2422 19.5977 71.2282 19.64C 71.0846 19.671 70.7742 19.9238 70.5104 20.06C 69.7264 20.9425 67.2933 22.1942 67.0193 22.7412C 63.7547 24.8754 60.561 26.9363 57.3178 28.7444C 57.1016 28.9126 56.6532 29.1221 56.23 29.4276C 53.094 31.1407 51.8039 31.7723 51.1345 32.1613C 50.991 32.1923 50.8577 32.2233 50.7234 32.2562C 50.4027 32.7712 44.9885 35.2306 44.1318 35.6412C 44.115 35.6948 44.0973 35.7465 44.0833 35.7888C 43.8829 35.8198 43.1297 36.1769 42.48 36.4194C 42.4622 36.472 42.4483 36.5143 42.4352 36.5566C 37.2717 39.0056 32.0337 41.5082 26.9578 43.7467C 26.9401 43.7993 26.9233 43.851 26.9094 43.8933C 19.3212 47.0151 12.0491 49.9275 4.66046 51.3362C 3.88021 51.3991 3.88021 51.3991 2.16029 51.3991C 0.782496 51.1679 -0.0490296 50.9791 0.00224161 49.3176C 0.414275 48.235 0.744276 47.2257 1.59351 46.1431C 1.55529 46.1431 1.518 46.1431 1.48911 46.1431C 1.50961 46.0801 1.50961 46.0801 1.61402 46.0801C 1.73334 45.8912 1.86199 45.7023 1.99063 45.5125C 2.0186 45.5125 2.05682 45.5125 2.09877 45.5021C 2.63106 44.6601 2.77368 44.5445 2.88741 44.3143C 2.92563 44.3143 2.97317 44.3143 3.02072 44.3143C 3.30411 43.7673 3.79258 43.0315 4.47122 42.6424C 4.6269 42.4009 5.02029 41.8653 5.38106 41.7807C 5.56004 41.4649 5.98233 41.2234 6.32631 40.7817C 6.38877 40.7921 6.45589 40.7921 6.53233 40.7921C 6.65724 40.6135 6.71597 40.5505 7.02919 40.435C 7.04317 40.3927 7.05716 40.3504 7.07394 40.2977C 7.02639 40.2977 6.97792 40.2977 6.94063 40.2977C 6.96487 40.2235 7.17461 40.1925 7.30699 40.1079C 7.33029 40.0346 7.35826 39.951 7.38529 39.8664C 7.70597 39.6136 8.02572 39.3617 8.35851 39.0996C 8.50207 38.952 8.65961 38.9624 8.79478 38.6682C 9.08377 38.5103 9.28046 38.2904 9.69902 38.1109C 9.713 38.0686 9.72978 38.016 9.7475 37.9643C 9.78851 37.9531 9.83978 37.9437 9.89478 37.922C 9.93114 37.8694 9.9675 37.8168 10.0066 37.7529C 10.1213 37.7219 10.236 37.6909 10.3609 37.658C 10.3199 37.6373 10.2798 37.6166 10.2518 37.5847C 10.69 37.4061 10.7794 37.2802 10.9482 37.2276C 10.9137 37.2163 10.8792 37.2069 10.854 37.1965C 10.868 37.1543 10.8848 37.1007 10.9025 37.049C 11.0759 36.9541 11.3239 36.9231 11.5252 36.6289C 11.5634 36.6289 11.6007 36.6289 11.6483 36.6289C 11.8739 36.3761 12.0081 36.3132 12.3996 36.1027C 12.3791 36.082 12.3661 36.0604 12.3577 36.0294C 12.4173 36.0181 12.4882 36.0087 12.5581 35.9984C 12.5721 35.9561 12.5889 35.9025 12.6066 35.8508C 12.779 35.7888 12.779 35.7888 13.0074 35.7888C 13.041 35.7145 13.0839 35.6412 13.1305 35.5576C 13.1976 35.5257 13.2656 35.4946 13.3449 35.4524C 13.3719 35.3997 13.3989 35.3471 13.425 35.2945C 13.591 35.2212 13.7709 35.1366 13.9499 35.053C 13.9284 35.0323 13.9163 35.0107 13.9079 34.9787C 14.0599 34.8631 14.2267 34.6742 14.5017 34.6742C 14.5157 34.6319 14.5297 34.5906 14.5465 34.537C 14.663 34.5577 14.6565 34.5793 14.8634 34.4111C 14.8233 34.3904 14.7823 34.3688 14.7544 34.3378C 14.9492 34.2645 15.2839 33.9694 15.5402 33.9694C 15.7229 33.6433 17.1315 32.8549 17.6759 32.6133C 17.6899 32.5711 17.7066 32.5184 17.7234 32.4667C 17.9406 32.3822 18.0795 32.1933 18.3461 32.0147C 18.39 32.026 18.444 32.0354 18.4972 32.0467C 18.5708 31.9095 18.5503 31.8568 18.8039 31.7206C 18.8188 31.7619 18.8458 31.7939 18.8738 31.8249C 19.1516 31.3832 19.9728 31.2253 20.2301 30.8475C 20.2898 30.8363 20.3606 30.8269 20.4305 30.8156C 20.4772 30.7319 20.5238 30.6474 20.5797 30.5637C 20.6729 30.5431 20.7652 30.5214 20.8566 30.5008C 20.8705 30.4585 20.8883 30.4058 20.905 30.3532C 20.9544 30.4068 21.0132 30.4585 21.0756 30.5008C 21.2714 30.1643 21.3255 30.0581 21.8027 29.9331C 21.8261 29.8909 21.8624 29.8382 21.8988 29.7865C 22.0106 29.7659 22.1318 29.7443 22.2521 29.7236C 22.3481 29.577 22.3481 29.577 22.5448 29.4088C 22.5886 29.4191 22.6333 29.4285 22.6809 29.4285C 22.7135 29.3871 22.7461 29.3449 22.7788 29.3026C 22.817 29.3026 22.8552 29.3026 22.9018 29.3026C 22.9251 29.2603 22.9587 29.218 22.9913 29.1757C 23.0696 29.1964 23.6494 28.9652 23.7762 28.7246C 24.0997 28.5771 24.4334 28.4305 24.7662 28.2829C 24.7448 28.2623 24.7327 28.2406 24.7243 28.2096C 24.9909 28.2096 24.9806 28.2096 25.3302 27.9249C 25.3218 27.8939 25.3218 27.8629 25.3265 27.8206C 25.5222 27.7153 25.5222 27.7153 25.8588 27.673C 25.8634 27.6307 25.8672 27.5894 25.8755 27.5358C 26.2335 27.3986 26.5924 27.2633 26.9634 27.1157C 27.0212 27.1157 27.0865 27.1157 27.1536 27.1157C 27.1294 27.0735 27.1182 27.0208 27.107 26.9691C 27.3522 26.8009 27.3522 26.8009 27.7129 26.6853C 27.8844 26.3066 28.4074 26.5378 28.9145 25.9176C 29.0889 25.9382 29.3135 25.802 29.5214 25.8339C 29.5605 25.771 29.6006 25.7071 29.6435 25.6338C 29.6948 25.6234 29.7591 25.6027 29.8225 25.5811C 29.8495 25.5285 29.8756 25.4759 29.9027 25.4232C 30.1068 25.381 30.3706 25.2127 30.7006 25.1601C 30.8628 24.8979 32.3105 24.3096 32.7002 24.3096C 32.7505 24.2147 32.8 24.1207 32.854 24.0155C 33.4478 23.8266 34.0556 23.4798 34.7622 23.2374C 34.7762 23.196 34.793 23.1424 34.8107 23.0908C 34.9151 23.0908 35.0195 23.0908 35.1239 23.0908C 35.1472 23.0485 35.1827 22.9958 35.22 22.9442C 35.4362 22.9235 35.4362 22.9235 35.8175 22.744C 35.8315 22.7017 35.8483 22.6491 35.866 22.5964C 35.9228 22.5964 35.989 22.5964 36.0561 22.5964C 36.0319 22.6707 36.0077 22.744 35.9844 22.8173C 36.0953 22.7966 36.2072 22.775 36.3218 22.744C 36.3358 22.7017 36.3526 22.6491 36.3703 22.5964C 36.3013 22.5767 36.2323 22.5551 36.1727 22.5344C 36.2892 22.4395 36.4141 22.4076 36.6388 22.3869C 36.6332 22.3455 36.6313 22.292 36.6294 22.2403C 37.2055 22.0204 37.6008 21.8296 38.2524 21.7253C 38.2916 21.6623 38.3354 21.5881 38.3885 21.5148C 39.6097 21.0938 39.6097 21.0938 39.8474 20.9472C 39.826 20.9265 39.8139 20.9049 39.8055 20.8739C 40.1066 20.7367 40.1066 20.7367 41.4405 20.3476C 41.4545 20.3053 41.4713 20.2527 41.489 20.201C 41.751 20.1268 42.1788 19.9802 42.5666 19.9275C 42.5676 19.8965 42.5685 19.8646 42.5732 19.8223C 42.8939 19.6541 43.6508 19.203 44.0218 19.2866C 44.0358 19.2443 44.0489 19.203 44.0666 19.1494C 44.4814 19.0451 44.7312 18.9182 45.1759 18.8656C 45.1899 18.8233 45.2038 18.781 45.2206 18.7284C 45.7837 18.6654 46.37 18.266 47.0487 18.2237C 47.0878 18.1617 47.1279 18.0978 47.1708 18.0245C 47.5567 17.9193 47.5567 17.9193 47.7749 17.9193C 48.3771 17.5302 49.2813 17.1205 50.0411 17.0368C 49.9963 17.174 49.9963 17.174 50.0625 17.174C 50.0933 17.0791 50.124 16.9851 50.1557 16.8902C 50.7812 16.7211 50.7812 16.7211 50.9733 16.7427C 51.2772 16.5115 51.4785 16.4166 51.8467 16.3959C 51.8607 16.3536 51.8747 16.3113 51.8915 16.2587C 51.9856 16.2907 52.0835 16.3113 52.1805 16.332C 52.2038 16.2907 52.2364 16.2484 52.269 16.2061C 52.4266 16.2484 52.9905 15.8593 53.4744 15.8903C 53.4557 15.8593 53.4473 15.8283 53.4389 15.7954C 53.5284 15.7851 53.617 15.7747 53.7055 15.7644C 53.7195 15.7221 53.7363 15.6695 53.754 15.6178C 54.0076 15.7437 54.4196 15.3547 54.7207 15.4806C 54.744 15.4383 54.7673 15.396 54.8027 15.3434C 54.8727 15.3321 54.9463 15.3114 55.019 15.2898C 55.0339 15.3321 55.0489 15.3744 55.0768 15.4054C 55.0973 15.3434 55.1281 15.2795 55.1579 15.2165C 55.4889 15.1639 55.8291 15.1113 56.1694 15.0586C 56.1955 15.006 56.2225 14.9543 56.2589 14.9017C 56.8163 14.7645 57.5005 14.5333 58.2006 14.2815C 58.6061 13.5663 59.3361 13.0194 59.8749 12.3042C 59.9131 12.3042 59.9504 12.3042 59.9979 12.3042C 60.327 11.8522 60.6775 11.621 61.3039 11.2742C 61.6861 10.8645 62.5978 10.139 63.2271 9.84486C 63.2411 9.80351 63.2578 9.74994 63.2746 9.69826C 63.3128 9.69826 63.8703 9.593 63.6736 9.35054C 63.696 9.34021 64.7745 8.80361 64.9013 8.56303C 65.0197 8.52074 65.1474 8.47845 65.2789 8.42582C 65.2928 8.38353 65.3068 8.34124 65.3236 8.28862C 65.3618 8.28862 65.4084 8.28862 65.4569 8.28862C 65.5483 8.18336 66.5494 7.44753 66.776 7.39491C 66.9615 7.09042 69.3861 5.80765 69.7749 5.60748C 69.7889 5.56614 69.8028 5.52385 69.8196 5.47122C 70.3827 5.14512 70.9429 4.79835 71.6486 4.55683C 71.6626 4.51454 71.6803 4.46192 71.6971 4.40929C 71.8341 4.36794 71.9711 4.32565 72.1222 4.27209C 72.1361 4.23074 72.1529 4.17717 72.1706 4.12455C 72.5398 3.95633 72.5398 3.95633 72.8101 3.91404C 72.8241 3.87269 72.8372 3.8304 72.8549 3.77683C 73.9204 3.3671 75.3224 2.42076 76.4839 2.12662C 76.4849 2.09467 76.4858 2.06365 76.4858 2.0317C 76.7412 1.94806 77.8347 1.68493 78.0808 1.36917C 81.0256 0.444449 84.6267 -0.659768 87.0514 0.496136C 87.4616 0.895533 87.4616 0.895533 87.6023 0.959437C 87.5855 1.01206 87.5716 1.05435 87.5576 1.0957C 87.5958 1.0957 87.634 1.0957 87.6816 1.0957C 87.6732 1.14833 87.6694 1.19062 87.6648 1.23291C 88.1188 2.02136 87.5408 3.29286 87.14 4.19785C 86.4893 5.22782 85.5105 6.90999 84.7535 7.47761C 84.2818 8.07623 83.4028 8.99156 83.3291 9.12782C 84.0432 9.09587 84.0432 9.09587 87.0262 8.7491C 87.4746 8.53859 87.9239 8.32809 88.3723 8.11852C 89.2411 7.84505 89.8331 7.48794 89.8443 8.49724C 89.8051 8.5292 89.7669 8.56021 89.7315 8.58088C 94.0364 8.66452 98.9939 8.15047 102.676 9.84204C 103.263 10.3993 103.052 10.3467 104.053 10.0206C 104.278 10.0309 104.512 10.0413 104.746 10.0516C 104.826 10.4726 104.826 10.4726 104.812 10.7771C 105.118 10.6512 105.534 10.2518 105.896 10.2518C 105.981 10.1681 106.078 10.0732 106.176 9.9783C 106.206 9.99898 106.247 10.0206 106.287 10.0413C 106.773 9.54696 108.271 9.17951 108.509 8.80079C 110.233 9.3684 108.043 10.8617 107.012 11.7761C 107.011 11.808 107.011 11.839 107.019 11.871C 106.74 11.9969 106.478 12.3653 106.414 12.5016C 108.047 11.4612 109.679 10.1362 111.413 8.95867C 110.411 8.76977 109.409 8.57994 108.417 8.39105C 105.168 7.89674 101.411 7.41276 101.167 7.31879C 100.95 6.94006 100.955 6.57262 101.375 5.96271C 103.363 5.37348 106.272 5.45806 108.193 5.36315C 114.764 5.22594 115.001 5.28985 115.144 5.22594C 116.2 5.22594 116.368 5.28891 116.674 5.22594C 117.986 5.22594 126.375 5.19399 126.515 5.43645C 127.076 5.43645 127.819 5.45712 128.506 5.39416C 128.488 5.44679 128.475 5.48908 128.461 5.53136C 129.968 5.51069 131.492 5.73153 133.083 5.60467C 133.065 5.65729 133.048 5.70992 133.033 5.75221C 133.1 5.75221 133.1 5.75221 133.149 5.60467C 133.41 5.64696 133.41 5.64696 133.595 5.60467C 133.588 5.65729 133.583 5.69958 133.589 5.74187C 135.319 5.67891 137.021 5.99467 138.817 5.99467C 140.585 6.16288 142.348 6.35177 144.228 6.38373C 144.21 6.43635 144.197 6.47864 144.183 6.52093C 144.443 6.51059 145.006 6.41568 145.18 6.66753C 145.203 6.62618 145.23 6.57262 145.267 6.52093C 145.889 6.56322 146.387 6.66753 147.498 6.69948C 147.79 6.99363 149.626 6.58389 149.689 7.08855C 150.014 6.64686 152.296 7.1938 153.132 7.1938C 153.048 7.24642 152.964 7.29905 152.893 7.34134C 152.986 7.32067 153.077 7.29905 153.174 7.26804C 154.737 7.34134 159.407 7.76141 159.942 7.86667C 159.871 7.90896 159.814 7.93997 159.756 7.97192C 159.774 8.00293 159.795 8.02455 159.827 8.04522C 160.091 7.96064 160.241 7.90802 160.453 8.07623C 160.486 8.03488 160.528 7.99259 160.571 7.9503C 160.763 7.97098 160.956 7.99165 161.151 8.00293C 161.128 8.07623 160.994 8.07623 160.97 8.15047C 161.175 8.10818 161.382 8.05556 161.589 8.00293C 161.571 8.05556 161.554 8.10818 161.54 8.15047C 161.738 8.1298 161.934 8.10818 162.143 8.07623C 162.139 8.11852 162.135 8.16081 162.14 8.2031C 162.47 8.06589 163.426 8.07623 163.835 8.04522C 163.75 8.2952 163.671 8.53671 163.592 8.77823Z"/>
<path id="path1_fill" fill-rule="evenodd" d="M 14.3248 6.30672C 14.0331 6.41198 13.7086 6.62248 12.9219 6.90629C 9.08771 7.9372 4.98509 8.22007 1.89856 7.1168C 1.03627 6.52851 1.03627 6.52851 0.598137 6.09716C -0.401185 4.36236 -0.0842357 3.04858 1.07356 0.589229C 1.36254 0.0836385 1.27212 0.0422892 1.80814 0C 4.75949 0.704819 7.60085 1.42937 10.4478 2.39733C 11.5441 2.96494 14.0992 3.95263 14.2801 5.45624C 14.3183 5.45624 14.3668 5.45624 14.4143 5.45624C 14.3733 5.66675 14.4162 5.74099 14.364 5.89887C 14.3854 5.9186 14.4069 5.94022 14.4414 5.95149C 14.4003 6.07554 14.3621 6.19113 14.3248 6.30672Z"/>
<path id="path2_fill" fill-rule="evenodd" d="M 5.51864 0.689142C 5.28 0.836684 5.28 0.836684 2.48898 1.96158C 1.62856 2.267 0.749492 2.60343 0 2.77165C 0.0139831 2.72936 0.0270339 2.68707 0.045678 2.63444C 0.0829661 2.63444 0.121186 2.63444 0.168729 2.63444C 0.194831 2.58182 0.231186 2.52919 0.267542 2.47656C 0.337458 2.46623 0.411102 2.44555 0.494068 2.42394C 0.679576 2.0875 3.11076 0.615841 2.75932 0.00593734C 3.61602 -0.0570265 4.72254 0.394998 5.51864 0.689142Z"/>
<path id="path3_fill" fill-rule="evenodd" d="M 8.79627 0.192755C 8.26585 0.391984 6.44619 1.27536 6.11619 1.18138C 6.09847 1.23401 6.0817 1.28569 6.06771 1.32798C 4.93881 1.72738 3.85559 2.2217 2.81339 2.70473C 1.98653 2.96786 0.692627 3.52514 0 3.46218C 0.289915 2.5788 3.39788 1.0968 2.39949 0.0245384C 4.51746 -0.0280881 6.6578 -0.00647368 8.79627 0.192755Z"/>
<path id="path4_fill" fill-rule="evenodd" d="M 7.71025 0C 5.08424 1.11455 2.50297 2.66986 0 3.52222C 0.935 2.32402 3.07441 1.0732 4.46898 0.179494C 6.35483 0.0206747 6.35483 0.0206747 7.71025 0Z"/>
<path id="path5_fill" fill-rule="evenodd" d="M 13.8731 9.30549C 12.3144 9.1899 10.2319 10.0103 8.60424 10.2208C 8.58746 10.2734 8.56975 10.3251 8.55669 10.3674C 8.49051 10.3674 8.42339 10.3674 8.36653 10.3674C 8.3572 10.3364 8.35814 10.3045 8.35907 10.2725C 8.0328 10.3984 7.81466 10.3984 6.92254 10.6822C 5.12805 11.1136 3.34754 11.5337 1.56517 11.9547C 1.24915 12.2808 0.40178 12.3428 0.115593 12.4058C 0.0671186 12.5533 0.0671186 12.5533 0 12.5533C 0.0242373 12.4791 0.0484746 12.4058 0.0727119 12.3325C 0.110932 12.3325 0.158475 12.3325 0.206017 12.3325C 0.702881 11.6596 1.81127 10.7978 2.65212 10.2932C 2.70153 10.2302 2.75373 10.156 2.81619 10.0827C 5.76288 7.87424 8.9417 5.97217 12.1326 4.12178C 14.1807 3.09087 16.3359 2.05055 18.5527 1.23014C 20.529 0.652193 22.2564 0.220843 24.2065 0.126867C 24.2261 0.0949157 24.2457 0.0639036 24.2653 0.0319518C 24.3249 0.0216145 24.3958 0.0112771 24.4657 0C 24.448 0.0526265 24.4349 0.0949157 24.4209 0.137205C 24.4489 0.137205 24.4787 0.137205 24.516 0.137205C 24.5272 0.105253 24.5403 0.0629639 24.5636 0.0216145C 24.6018 0.0216145 24.6428 0.0112771 24.6847 0.000939759C 24.667 0.0535663 24.654 0.0958554 24.64 0.138145C 25.3354 0.158819 26.6368 0.337373 26.6862 1.20007C 25.8621 3.71205 23.691 5.93082 21.9021 7.82255C 21.7865 7.88552 21.6709 7.94848 21.5581 8.00111C 18.9881 8.30559 16.472 8.73694 13.9747 9.16735C 13.9383 9.22186 13.9057 9.26321 13.8731 9.30549Z"/>
<path id="path6_fill" fill-rule="evenodd" d="M 78.6071 0.0111643C 78.1904 0.325984 77.9322 0.589116 77.6917 0.862586C 77.6442 0.862586 77.606 0.862586 77.5677 0.862586C 76.9422 1.9029 75.1431 2.60772 74.6499 3.53338C 74.2277 3.80591 73.082 4.72124 72.8909 5.01538C 72.8433 5.01538 72.8051 5.01538 72.7669 5.01538C 72.7501 5.06801 72.7324 5.11969 72.7184 5.16198C 72.6774 5.17326 72.6354 5.18266 72.5982 5.18266C 72.5329 5.38283 72.1293 5.57172 71.9988 5.79162C 71.5243 5.90721 70.2238 7.06406 70.0514 7.3582C 69.5583 7.55837 68.6829 8.20022 68.4834 8.547C 68.4172 8.547 68.3501 8.547 68.2932 8.547C 68.2765 8.59962 68.2625 8.64191 68.2485 8.6842C 67.953 8.74622 66.7225 9.74613 66.6488 9.88239C 65.6877 10.2921 64.5756 11.511 63.9044 11.6482C 63.8802 11.7215 63.856 11.7948 63.8354 11.8587C 63.086 12.2901 62.5443 12.6678 62.4101 12.6998C 62.3924 12.7534 62.3756 12.805 62.3616 12.8473C 61.8592 12.931 60.9773 13.5935 60.5746 13.835C 60.5569 13.8886 60.5438 13.9309 60.5299 13.9722C 60.4208 14.0145 60.3154 14.0465 60.2101 14.0775C 60.2278 14.1085 60.2493 14.1301 60.281 14.1508C 59.2266 14.4976 58.3196 15.4129 57.4051 15.738C 57.3874 15.7907 57.3743 15.8329 57.3604 15.8752C 57.0807 15.9175 56.9288 16.1487 56.6351 16.2323C 55.1697 17.0528 53.5943 17.9455 52.2808 18.734C 52.1754 18.7659 52.0701 18.7969 51.9741 18.8298C 51.9377 18.8825 51.9116 18.9342 51.8874 18.9764C 51.3672 19.1136 50.7557 19.5027 50.3166 19.6813C 50.2989 19.7339 50.2821 19.7856 50.2682 19.8279C 50.0677 19.8589 49.8869 20.0064 49.528 20.1427C 49.3471 20.2902 45.6976 22.1199 45.3722 22.3295C 44.6824 22.6659 43.9926 23.0024 43.3027 23.3388C 43.2664 23.3914 43.23 23.4431 43.2067 23.4854C 43.1629 23.4751 43.1191 23.4647 43.0781 23.4431C 43.0119 23.5587 40.6348 24.5793 40.3915 24.6836C 40.3747 24.7362 40.357 24.7889 40.3439 24.8302C 39.6914 25.083 37.112 26.3442 29.1631 30.0139C 28.8769 30.1915 28.8769 30.1915 22.6777 32.8416C 22.4866 33.2194 19.1158 34.3763 18.6077 34.5342C 15.3105 35.8695 11.9844 37.0048 8.80469 37.9201C 6.07985 38.5826 2.11613 39.8335 0.00188883 38.7189C -0.0689586 36.6167 1.86723 34.5351 3.45291 32.6537C 3.49113 32.6537 3.53867 32.6537 3.58621 32.6537C 4.66384 31.308 6.42477 29.9622 7.87528 28.7847C 7.92841 28.7114 7.98062 28.6381 8.04308 28.5648C 8.09994 28.5648 8.16613 28.5648 8.23324 28.5648C 8.33672 28.3646 10.8844 26.3893 11.2694 26.315C 11.3216 26.2408 11.3841 26.1675 11.4465 26.0942C 13.0555 25.0116 14.6682 23.9186 16.2893 22.8248C 23.0618 18.484 29.9396 14.8039 37.1465 11.8606C 37.1604 11.8183 37.1772 11.7657 37.1949 11.713C 37.5492 11.6181 43.2738 9.28471 46.255 8.16076C 49.4767 7.05654 52.7525 5.93165 56.0618 4.881C 56.1243 6.68909 58.8388 5.82733 60.321 5.48056C 61.463 5.03888 62.6059 4.59813 63.7515 4.14516C 63.8634 4.00796 63.9753 3.95627 64.0266 3.6828C 64.1869 3.63018 64.1869 3.63018 64.337 3.4629C 64.3053 3.44222 64.2745 3.42061 64.2531 3.39994C 64.4283 3.09451 64.4796 2.96859 64.5281 2.55791C 67.9483 1.83336 71.4991 1.1182 74.9771 0.476345C 78.3601 -0.0198477 78.3601 -0.0198477 78.6071 0.0111643Z"/>
<path id="path7_fill" fill-rule="evenodd" d="M 82.0359 22.0721C 81.6872 22.3963 81.2062 22.9123 80.9088 23.0269C 80.8119 23.3229 76.837 25.8913 76.2702 26.0351C 76.2543 26.0821 76.2385 26.13 76.2264 26.1685C 74.0404 27.0857 71.9224 28.1073 69.8594 28.9089C 69.6031 29.2425 69.1407 29.7011 69.1286 29.9492C 68.7193 29.9586 68.3092 29.9689 67.899 29.9783C 67.679 29.8063 67.4888 29.7011 67.2502 29.6635C 65.5788 30.0648 64.5291 30.1785 63.1606 29.921C 62.2135 29.4342 62.083 29.3289 62.0093 28.2116C 62.0914 27.9353 62.1734 27.658 62.2564 27.3808C 62.3524 27.3526 62.3804 27.2662 62.4484 27.1139C 61.8947 27.1139 59.9054 28.0875 59.346 28.3168C 58.3943 28.6608 57.4509 29.0038 56.5103 29.3383C 53.9504 30.0732 50.6104 31.2094 50.3363 28.2792C 50.4426 27.9832 50.5488 27.6872 50.6663 27.3818C 48.4821 28.3178 46.5627 29.2622 44.4923 29.6635C 43.8407 29.5676 43.5554 29.5676 43.4305 28.9192C 43.3876 28.9192 43.3532 28.9192 43.3187 28.9192C 43.4361 28.3751 43.5219 28.1937 43.9898 27.6402C 45.1905 26.6187 46.9915 25.0333 48.402 24.3745C 48.4141 24.336 48.4271 24.2984 48.4421 24.2505C 48.526 24.2307 48.6108 24.212 48.6975 24.1838C 48.8727 23.649 53.5552 21.5863 54.5815 21.1765C 55.5753 20.8899 55.5753 20.8899 56.624 20.6991C 56.0078 20.546 55.3422 20.3073 54.7018 20.3364C 47.1137 22.9997 47.1137 22.9997 47.0316 23.0664C 45.5718 23.5344 43.8463 24.0212 42.4396 24.5371C 42.3576 24.6038 39.5926 25.4346 39.5106 25.5013C 37.5837 26.0736 37.306 26.208 35.491 26.7803C 34.1952 27.0378 32.8556 27.5631 31.6344 27.9353C 24.0267 29.921 23.6921 30.045 22.002 30.4266C 21.919 30.4933 21.4995 30.561 21.2609 30.6559C 17.8835 31.324 14.521 32.0307 11.2676 32.479C 9.06578 32.651 6.44443 33.0993 4.73104 32.26C 4.45324 31.8682 4.45324 31.8682 4.39451 31.6774C 4.59027 31.1333 5.39943 29.5676 6.11349 29.3675C 6.12654 29.3007 6.14053 29.2331 6.16197 29.1673C 6.34655 29.0527 6.56282 28.7369 6.81265 28.6608C 6.8257 28.6222 6.83782 28.5847 6.85366 28.5367C 7.27409 28.47 7.69824 27.6768 8.23426 27.6768C 8.40671 27.4955 8.65841 27.4381 8.83739 27.2088C 8.98468 27.2088 9.01544 27.1139 9.24756 27.066C 9.26714 27.0087 9.28858 26.942 9.31002 26.8752C 9.99146 26.722 10.7652 26.0539 11.5799 25.787C 11.5921 25.7485 11.6079 25.7015 11.6237 25.6535C 11.7011 25.6535 11.7794 25.6535 11.8605 25.6441C 11.8605 25.616 11.8615 25.5868 11.8624 25.5586C 12.2269 25.5295 12.6054 25.272 13.092 25.0812C 13.105 25.0427 13.1199 24.9948 13.1358 24.9468C 13.2215 24.976 13.3101 24.9948 13.3987 25.0136C 13.4182 24.9562 13.4397 24.8895 13.4611 24.8228C 13.8993 24.7269 13.8993 24.7269 14.5723 24.4403C 14.5854 24.4018 14.6003 24.3548 14.6161 24.3069C 15.0822 24.2298 15.6807 23.8577 16.2354 23.8003C 16.2484 23.7618 16.2633 23.7139 16.2792 23.666C 16.405 23.7045 16.405 23.7045 16.5644 23.666C 16.5775 23.6274 16.5896 23.5898 16.6054 23.5419C 18.3496 23.026 20.1506 22.2817 22.001 21.7855C 22.2704 21.6511 22.2704 21.6511 24.2094 21.1455C 24.4947 21.1455 24.4947 21.1455 24.6121 21.0788C 24.5926 21.0591 24.5814 21.0403 24.573 21.0121C 25.4707 20.7546 26.2295 20.6305 26.7245 20.468C 26.8876 20.2105 26.8876 20.2105 32.2115 14.1669C 33.0243 13.3267 33.8484 12.4772 34.6725 11.6267C 34.707 11.6267 34.7424 11.6267 34.7853 11.6267C 38.4311 7.66467 38.4311 7.66467 38.8898 7.2446C 39.3065 6.97677 39.5591 6.78694 40.0634 6.70048C 39.9693 7.09236 39.9851 7.17788 39.7903 7.53123C 39.7437 7.54063 39.698 7.55096 39.6635 7.55096C 39.4985 7.89492 39.1778 8.02836 38.9867 8.16181C 37.5502 9.68892 36.0838 11.2837 34.6464 12.6586C 34.5923 12.745 34.5382 12.8305 34.4842 12.916C 34.4413 12.916 34.3975 12.916 34.363 12.916C 33.0253 14.5108 31.3893 15.99 30.2585 17.5368C 30.156 17.613 30.0562 17.6797 29.9648 17.7464C 29.7393 18.4334 28.2319 19.4934 27.9103 20.2095C 30.5922 19.5226 33.5827 18.8732 36.2526 18.6439C 36.3877 18.5772 37.5959 18.4531 38.1151 18.4531C 43.5126 17.7182 48.8056 17.9278 53.7612 18.6439C 55.7254 19.0358 55.7254 19.0358 55.9025 19.0254C 55.8652 19.0066 55.8279 18.9869 55.7999 18.9681C 56.0535 18.8534 56.3071 18.7388 56.5615 18.6251C 56.5755 18.6636 56.597 18.7012 56.6221 18.7294C 56.6715 18.7106 56.721 18.6909 56.7704 18.6721C 56.7825 18.6335 56.7955 18.595 56.8104 18.548C 57.3931 18.4334 58.2265 17.8987 58.8538 17.8319C 58.8837 17.7934 58.9135 17.7549 58.9433 17.7173C 59.1447 17.7361 59.236 17.7455 59.5539 17.6214C 59.4998 17.6026 59.4449 17.5838 59.3945 17.5547C 59.4793 17.5068 59.5521 17.4974 59.704 17.5359C 59.7338 17.4974 59.7637 17.4588 59.8056 17.4119C 59.9184 17.4119 60.034 17.4025 60.1496 17.3921C 60.1617 17.3536 60.1748 17.316 60.1897 17.2681C 60.7844 17.0388 60.7844 17.0388 61.1582 16.9533C 61.2776 16.8001 61.8872 16.6281 62.1604 16.5614C 62.1734 16.5228 62.1883 16.4759 62.2042 16.4279C 62.3664 16.4082 62.5276 16.3894 62.6898 16.3706C 62.9397 15.8744 64.0742 16.0266 64.6242 15.4064C 64.9402 15.4449 65.3466 15.1301 65.8183 14.9581C 65.8314 14.9196 65.8435 14.8811 65.8593 14.8341C 66.0728 14.8144 66.3254 14.6527 66.5557 14.6913C 66.5762 14.6527 66.607 14.6151 66.6359 14.5766C 66.6713 14.5766 66.7132 14.5766 66.757 14.5766C 66.7701 14.5381 66.7822 14.5005 66.7981 14.4526C 66.9808 14.4244 67.3313 14.2233 67.5224 14.1951C 67.5504 14.1377 67.5774 14.0804 67.6137 14.0231C 68.2243 13.9564 69.2572 13.1538 70.0375 12.8869C 70.2426 12.7629 70.4467 12.6388 70.6611 12.5148C 70.6742 12.4762 70.6947 12.4387 70.7161 12.4001C 70.8028 12.4001 70.8979 12.4001 70.9958 12.3907C 71.1897 12.1426 72.0501 11.684 72.4034 11.5027C 72.4155 11.4641 72.4286 11.4256 72.4435 11.3786C 73.0336 11.1878 74.9483 9.57426 75.4349 8.93429C 75.901 8.75292 76.1816 7.63554 76.7615 7.29159C 77.1474 6.11689 77.442 5.64043 77.0598 4.64711C 77.0905 4.37082 76.0614 3.47241 75.9887 3.40663C 74.3881 2.46123 72.4239 1.83065 70.4626 1.61169C 70.3274 1.57316 70.1932 1.53463 70.071 1.48764C 69.3961 1.48764 69.3961 1.48764 65.135 1.16248C 54.3392 1.16248 43.1835 3.23465 31.8973 5.96465C 26.4225 7.43443 25.646 7.69287 24.3204 8.01708C 21.1387 9.0386 20.1888 9.29704 19.9754 9.42108C 14.7699 10.9961 9.56078 13.0016 4.45417 14.8538C 4.43273 14.8924 4.42061 14.93 4.41129 14.9591C 1.6846 16.0182 1.14112 16.2766 0.441969 16.5341C -0.152777 16.4486 -0.0996416 16.0755 0.318918 15.4073C 0.729087 15.2645 1.15231 15.1113 1.57366 14.9591C 1.58671 14.9206 1.59883 14.882 1.61375 14.835C 8.33866 12.4011 15.0459 10.0225 21.8528 7.76053C 22.0607 7.76053 22.1269 7.74173 22.4345 7.56976C 23.8962 7.14969 25.3607 6.72022 26.8252 6.29075C 27.5243 6.24376 28.4472 5.67051 29.1865 5.73723C 29.1995 5.6987 29.2116 5.66111 29.2275 5.61318C 33.0169 4.71571 36.8604 3.73272 40.7346 2.89164C 41.2361 2.81552 41.9399 2.77699 42.5533 2.49036C 42.5785 2.51949 42.6037 2.54769 42.6288 2.57682C 42.6904 2.51949 43.5042 2.38511 43.5871 2.31933C 45.6054 1.99417 45.6054 1.99417 46.7939 1.74607C 47.6208 1.67935 47.6208 1.67935 47.7028 1.61263C 53.2392 0.715157 58.6441 0.142843 64.0285 0.104313C 64.0471 0.0761205 64.076 0.0375904 64.1059 0C 68.4574 0.181373 73.0932 0.238699 76.6216 2.21501C 76.6319 2.26294 76.6421 2.31087 76.6552 2.34846C 76.8472 2.29113 77.5371 3.00723 77.6983 3.15101C 78.6156 4.44036 78.4236 5.36602 77.8438 7.23708C 77.8027 7.25682 77.7617 7.27561 77.73 7.29441C 77.2201 8.58376 75.915 9.73872 75.0537 10.6747C 75.0108 10.6747 74.9763 10.6747 74.9409 10.6747C 74.7945 10.8561 74.7302 10.8937 74.623 10.9322C 74.6071 10.9801 74.595 11.0187 74.582 11.0563C 73.2778 11.9725 72.0576 12.7366 70.8336 13.462C 69.9098 13.93 68.9869 14.398 68.0659 14.8557C 68.0454 14.8942 68.0323 14.9318 68.023 14.961C 66.6806 15.5718 65.3382 16.1826 63.9949 16.7935C 57.298 19.3525 57.298 19.3525 57.1805 19.4483C 58.4809 19.9924 58.481 19.9924 59.4225 20.4698C 59.4066 20.5178 59.3945 20.5553 59.3815 20.5939C 60.5551 21.1286 60.8497 21.9969 61.244 23.2196C 61.0231 23.9451 60.9289 24.2317 60.5169 24.7758C 60.2382 24.8331 60.2531 25.0521 60.1039 25.1386C 59.9883 25.1188 59.9883 25.1188 59.8252 25.1959C 59.7366 25.0427 59.2882 24.9093 59.8988 24.4986C 59.9799 24.2505 60.0648 23.993 60.1505 23.7346C 59.6099 22.3785 58.838 21.8062 57.6354 21.1474C 57.5795 21.1568 57.5254 21.1671 57.4788 21.1765C 57.628 21.434 57.4695 21.7592 57.3996 21.9979C 57.6681 21.8926 57.9384 21.9124 58.2582 21.9124C 58.4511 22.3512 58.3495 22.5044 58.1771 23.0288C 58.0894 23.057 58.0055 23.0767 57.93 23.0955C 57.9142 23.1434 57.9021 23.181 57.889 23.2196C 57.6988 23.3239 57.5124 23.4197 57.325 23.5147C 55.7822 24.6038 54.3709 25.4242 52.8793 26.2259C 52.2072 26.9044 51.3626 27.658 51.5286 28.4409C 52.8672 29.8449 57.7855 27.7727 59.7665 27.0378C 61.2095 26.4364 62.6563 25.8255 64.1021 25.2147C 64.4517 24.9666 64.4517 24.9666 64.5505 24.8228C 64.585 24.8228 64.6195 24.8228 64.6633 24.8228C 65.0008 24.4788 65.3261 24.1734 65.8416 23.8962C 67.0498 22.9038 68.4723 21.9199 69.8893 21.1089C 69.9014 21.0703 69.9144 21.0318 69.9303 20.9848C 70.4989 20.7273 71.116 20.374 71.2382 20.3448C 71.4637 19.8956 74.8784 18.5593 75.6335 18.2633C 76.2077 18.1486 76.5293 18.0631 76.9759 18.4165C 76.9591 18.4926 76.9544 18.5593 76.9498 18.627C 76.9871 18.6458 77.0234 18.6655 77.0644 18.6749C 76.85 19.2763 76.7726 19.3525 76.3867 19.7631C 74.8616 20.8514 73.0858 22.0157 71.5896 22.6463C 71.5737 22.6942 71.5616 22.7318 71.5486 22.7704C 71.1766 22.9047 66.9071 25.0521 66.0346 25.4148C 66.0169 25.444 65.9982 25.4722 65.9805 25.5004C 64.9551 25.911 62.7141 27.3338 63.2874 28.4315C 64.4499 29.0808 65.8938 28.8703 67.5401 28.4409C 67.6165 28.3929 67.7014 28.345 67.789 28.2886C 67.8738 28.0311 69.398 26.7897 69.8585 26.6751C 69.8716 26.6365 69.8837 26.5989 69.8995 26.551C 70.9865 26.0069 72.0557 25.147 73.3067 24.632C 73.3188 24.5935 73.3347 24.5465 73.3505 24.4976C 75.7789 23.2656 78.2539 21.8156 80.8501 21.0224C 81.8187 21.0224 82.2577 20.9745 82.0359 22.0721Z"/>
<path id="path8_fill" fill-rule="evenodd" d="M 9.55415 0.0281928C 7.92373 1.14557 6.48534 1.99511 4.90525 2.88318C 1.99305 4.16219 0.390593 4.80217 0.147288 4.93561C 0.0950847 4.93561 0.0438136 4.93561 0 4.93561C 3.09212 3.05516 6.09847 1.46039 9.36398 0C 9.42271 0.00939759 9.48797 0.0197349 9.55415 0.0281928Z"/>
<path id="path9_fill" fill-rule="evenodd" d="M 5.69763 0.027253C 5.19703 0.31388 2.06763 1.96598 1.80381 2.2714C 1.78424 2.25166 1.77305 2.23287 1.76466 2.20467C 1.32559 2.43398 0.293644 3.07395 0 3.07395C 1.48966 1.90865 3.8528 0.772482 5.59415 0C 5.62585 0.00845783 5.65754 0.0187952 5.69763 0.027253Z"/>
<path id="path10_fill" fill-rule="evenodd" d="M 11.6982 0.140161C 10.8947 0.665486 9.06008 2.29785 8.64339 2.38337C 8.60983 2.43129 8.5772 2.47922 8.54458 2.52715C 8.34788 2.57508 7.59 3.30057 7.51915 3.3579C 5.41983 4.45553 2.04153 6.25987 0 6.25987C 0.789576 5.51558 2.46195 4.00727 3.40441 3.66332C 3.42864 3.61539 3.4622 3.56746 3.49483 3.51953C 5.51212 2.24992 9.57746 -0.222586 11.7392 0.0161125C 11.7234 0.0640402 11.7113 0.10257 11.6982 0.140161Z"/>
<path id="path11_fill" fill-rule="evenodd" d="M 47.6654 0.71645C 47.5172 0.745582 47.3727 0.764378 47.2366 0.783173C 47.2152 0.849896 47.3364 0.849896 47.3168 0.907221C 47.2581 0.926016 47.2096 0.945751 47.1592 0.964546C 47.1546 0.926016 47.1499 0.888426 47.1536 0.849896C 47.1108 0.849896 47.0763 0.849896 47.0418 0.849896C 47.0259 0.897823 47.0129 0.935414 47.0008 0.973944C 46.5384 1.01247 46.1916 1.25023 45.8336 1.28876C 45.8001 1.33669 45.7758 1.38462 45.7553 1.42315C 45.2808 1.49927 44.9592 1.66185 44.564 1.68064C 44.3766 1.88081 44.1352 1.85262 44.0429 1.87141C 44.027 1.91934 44.0149 1.95787 44.0019 1.99546C 43.6728 2.09978 43.5908 2.16744 43.2962 2.19563C 43.2803 2.24356 43.2682 2.28115 43.2561 2.31968C 42.997 2.29149 42.8711 2.35821 42.4814 2.3864C 42.2652 2.70122 42.0396 2.6251 41.8718 2.63544C 41.8354 2.69276 41.8028 2.74069 41.7786 2.78862C 41.071 3.04611 40.3141 3.21809 39.655 3.40886C 39.6392 3.45679 39.6261 3.49438 39.614 3.53291C 37.992 3.91539 36.0073 4.58356 34.4477 5.25173C 34.4225 5.22259 34.4058 5.1944 34.3918 5.15587C 34.3163 5.17561 34.2492 5.1944 34.1858 5.2038C 34.1699 5.25173 34.1578 5.29026 34.1457 5.32785C 33.8968 5.37578 33.6469 5.4237 33.4092 5.46129C 33.3934 5.50922 33.3813 5.54775 33.3692 5.58534C 32.9021 5.48009 31.6865 6.07214 31.0964 6.15765C 31.0806 6.20558 31.0647 6.25351 31.0526 6.2911C 29.5788 6.72151 27.9708 7.2459 26.5762 7.54192C 25.8379 7.86708 24.7304 8.21009 24.1375 8.27681C 24.1152 8.34353 24.0937 8.4112 24.0742 8.46852C 24.0145 8.46852 24.0145 8.46852 24.0574 8.33414C 22.3608 8.81153 20.7481 9.19402 19.1922 9.55676C 19.1764 9.60469 19.1642 9.64228 19.1512 9.68081C 18.1453 9.76633 16.9894 10.3104 16.1747 10.2635C 16.1355 10.3302 16.0992 10.3875 16.0637 10.4448C 16.0292 10.4157 15.9957 10.3875 15.9705 10.3584C 13.6139 10.817 11.1762 11.3893 8.88763 11.8C 8.87178 11.8479 8.85966 11.8864 8.84661 11.924C 7.53034 11.877 5.99873 12.4305 4.8139 12.3253C 4.78407 12.3638 4.75424 12.4024 4.7328 12.4399C 3.30653 12.4118 0.999322 12.7736 0 12.0481C 0.695424 11.0651 1.25288 10.5773 2.29322 9.83305C 2.46102 9.58496 3.67008 8.90645 3.94602 8.72508C 6.30263 7.47426 6.30263 7.47426 6.71093 7.31262C 6.72305 7.27409 6.7361 7.23556 6.75102 7.18857C 6.82373 7.17917 6.90483 7.16884 6.985 7.16038C 9.24932 6.03361 11.7942 5.10794 14.1639 4.37211C 14.2487 4.21987 17.3903 3.29327 17.9086 3.21715C 17.8433 3.73214 18.4511 3.82799 18.9275 3.82799C 19.3358 3.63722 20.3267 3.15043 20.652 2.6345C 20.6865 2.6345 20.721 2.6345 20.7648 2.6345C 20.7835 2.57717 20.8058 2.51045 20.8273 2.44279C 23.526 1.78402 26.2592 1.25869 29.012 0.7531C 35.3687 0.0482812 41.8876 -0.495839 47.6654 0.71645Z"/>
</defs>
</svg>
